<?xml version="1.0" encoding="iso-8859-1"?>
<!-- Generator: Adobe Illustrator 18.1.1, SVG Export Plug-In . SVG Version: 6.00 Build 0)  -->
<svg version="1.1" id="Capa_1" xmlns="http://www.w3.org/2000/svg" xmlns:xlink="http://www.w3.org/1999/xlink" x="0px" y="0px"
	 viewBox="0 0 52.418 52.418" style="enable-background:new 0 0 52.418 52.418;" xml:space="preserve">
<g>
	<path style="fill:#010002;" d="M12.418,12.993v33.729c0,3.141,2.575,5.696,5.739,5.696h16.102c3.166,0,5.741-2.556,5.741-5.696
		V12.993c0-3.142-2.575-5.697-5.741-5.697H18.157C14.993,7.296,12.418,9.852,12.418,12.993z M37.654,12.993v33.729
		c0,1.847-1.522,3.349-3.395,3.349H18.157c-1.871,0-3.393-1.502-3.393-3.349V12.993c0-1.847,1.521-3.35,3.393-3.35h16.102
		C36.132,9.644,37.654,11.146,37.654,12.993z"/>
	<path style="fill:#010002;" d="M30.151,0h-7.884c-0.693,0-1.258,0.564-1.258,1.259v4.022h10.399V1.259
		C31.409,0.564,30.845,0,30.151,0z M22.393,3.898V1.384h7.634v2.514H22.393z"/>
	<path style="fill:#010002;" d="M16.439,39.959v7.187c0,0.276,0.224,0.502,0.501,0.502h18.537c0.276,0,0.502-0.226,0.502-0.502
		V34.959c0-0.276-0.226-0.501-0.502-0.501l-18.537,5C16.663,39.458,16.439,39.683,16.439,39.959z M17.441,40.461l17.534-5v11.183
		H17.441C17.441,46.644,17.441,40.461,17.441,40.461z"/>
</g>
<g>
</g>
<g>
</g>
<g>
</g>
<g>
</g>
<g>
</g>
<g>
</g>
<g>
</g>
<g>
</g>
<g>
</g>
<g>
</g>
<g>
</g>
<g>
</g>
<g>
</g>
<g>
</g>
<g>
</g>
</svg>
